HIERARCHY
ROOT Hips
{
  OFFSET 0 0 0
  CHANNELS 6 Xposition Yposition Zposition Zrotation Xrotation Yrotation
  JOINT Spine
  {
    OFFSET 0 10.1816 0.131521
    CHANNELS 3 Zrotation Xrotation Yrotation
    JOINT Spine1
    {
      OFFSET 0 10.0835 -1.0008
      CHANNELS 3 Zrotation Xrotation Yrotation
      JOINT Spine2
      {
        OFFSET 0 9.10001 -1.37342
        CHANNELS 3 Zrotation Xrotation Yrotation
        JOINT Neck
        {
          OFFSET 0 16.6717 -2.51617
          CHANNELS 3 Zrotation Xrotation Yrotation
          JOINT Head
          {
            OFFSET 0 9.61788 1.68501
            CHANNELS 3 Zrotation Xrotation Yrotation
            End Site
            {
              OFFSET 0 0 0
            }
          }
        }
        JOINT LeftShoulder
        {
          OFFSET 4.57045 10.946 -2.62799
          CHANNELS 3 Zrotation Xrotation Yrotation
          JOINT LeftArm
          {
            OFFSET 10.5924 -0.524583 -2.23212
            CHANNELS 3 Zrotation Xrotation Yrotation
            JOINT LeftForeArm
            {
              OFFSET 27.8415 -8.94286e-05 3.74589e-05
              CHANNELS 3 Zrotation Xrotation Yrotation
              JOINT LeftHand
              {
                OFFSET 28.3288 -1.74407e-05 3.78045e-05
                CHANNELS 3 Zrotation Xrotation Yrotation
                End Site
                {
                  OFFSET 0 0 0
                }
              }
            }
          }
        }
        JOINT RightShoulder
        {
          OFFSET -4.56997 10.9462 -2.62802
          CHANNELS 3 Zrotation Xrotation Yrotation
          JOINT RightArm
          {
            OFFSET -10.5928 -0.524798 -2.2321
            CHANNELS 3 Zrotation Xrotation Yrotation
            JOINT RightForeArm
            {
              OFFSET -27.8415 -3.30792e-05 1.16763e-05
              CHANNELS 3 Zrotation Xrotation Yrotation
              JOINT RightHand
              {
                OFFSET -28.3288 0 5.5816e-05
                CHANNELS 3 Zrotation Xrotation Yrotation
                End Site
                {
                  OFFSET 0 0 0
                }
              }
            }
          }
        }
      }
    }
  }
  JOINT LeftUpLeg
  {
    OFFSET 8.20778 -6.75171 -1.59956
    CHANNELS 3 Zrotation Xrotation Yrotation
    JOINT LeftLeg
    {
      OFFSET 0 -44.3705 0.284643
      CHANNELS 3 Zrotation Xrotation Yrotation
      JOINT LeftFoot
      {
        OFFSET 0 -44.4279 -2.98219
        CHANNELS 3 Zrotation Xrotation Yrotation
        JOINT LeftToeBase
        {
          OFFSET 0 -8.72867 10.7106
          CHANNELS 3 Zrotation Xrotation Yrotation
          End Site
          {
            OFFSET 0 0 0
          }
        }
      }
    }
  }
  JOINT RightUpLeg
  {
    OFFSET -8.2078 -6.75166 -1.59956
    CHANNELS 3 Zrotation Xrotation Yrotation
    JOINT RightLeg
    {
      OFFSET 0 -44.3705 0.286156
      CHANNELS 3 Zrotation Xrotation Yrotation
      JOINT RightFoot
      {
        OFFSET 0 -44.4277 -2.98379
        CHANNELS 3 Zrotation Xrotation Yrotation
        JOINT RightToeBase
        {
          OFFSET 0 -8.72867 10.7106
          CHANNELS 3 Zrotation Xrotation Yrotation
          End Site
          {
            OFFSET 0 0 0
          }
        }
      }
    }
  }
}
MOTION
Frames:	13
Frame Time:	0.0333333
-1.06218 88.2488 0.621536 0.0522363 -5.45316 -46.3231 -1.95698 9.24296 7.55271 -0.916151 2.17162 1.02474 -0.894673 2.18722 1.01704 4.419 1.12137 13.174 -3.91066 7.47952 20.6962 -8.61707 0.572557 3.67365 -67.9227 -32.7083 -45.2099 -0.000152588 1.97618e-15 -106.358 -15.7588 4.04097 -6.87555 -5.23542 1.81436 13.2489 64.7892 12.3416 53.0667 4.51861e-05 4.20284e-06 105.988 8.39647 -5.59458 18.5713 18.4135 -27.9211 17.8669 8.07761 58.2064 -13.188 -14.4914 -21.577 -13.9736 5.79571e-06 -1.59404 -9.57291e-06 -28.3979 -17.7173 -21.5917 -14.375 57.9413 2.41679 22.3158 -24.8466 3.83543 -4.56079e-06 -0.0130071 5.89208e-06 
-1.28632 88.9284 0.295708 0.0503253 -5.2061 -46.1657 -2.10651 9.18874 7.70729 -1.04196 2.33647 1.06554 -1.01778 2.35413 1.05722 4.37238 1.25886 13.1227 -3.58387 7.45963 20.3446 -8.68089 0.524511 3.94968 -67.7348 -32.7023 -45.0412 -0.000212493 8.2289e-06 -105.643 -17.695 5.40358 -5.31842 -5.22469 1.82803 13.4837 65.0248 12.1795 52.6819 -1.02853e-06 7.85613e-06 104.918 8.21912 -6.09712 18.5018 19.2398 -27.2904 18.8903 7.35488 56.593 -13.4646 -14.37 -20.0632 -14.1101 0.0110115 -1.94094 0.00036221 -28.4205 -17.8297 -22.424 -14.3918 57.5789 3.55663 22.8834 -21.991 3.35794 0.0653923 -1.55711 0.00170327 
-1.69884 90.2001 -0.43934 -0.00869205 -4.64857 -45.9053 -2.23185 8.9404 7.85648 -1.11415 2.44396 1.11611 -1.08768 2.46282 1.10744 4.33803 1.5753 13.0315 -3.06611 7.37905 19.924 -8.63231 0.52038 3.95116 -67.7271 -33.5797 -46.3816 -0.000259399 1.86733e-15 -105.434 -18.414 5.80812 -4.7749 -5.0622 2.08554 14.178 65.1771 10.5858 53.8253 5.97375e-05 1.08221e-05 103.675 8.12045 -7.06212 18.4495 19.84 -26.3181 19.5583 7.21898 53.2832 -13.8917 -15.2198 -17.314 -14.0196 0.0231447 -2.53467 0.00102934 -27.8034 -17.8366 -22.9327 -13.3252 56.7546 3.61648 22.9301 -19.2832 2.78175 0.115933 -1.37599 0.0026667 
-2.33867 91.9218 -1.67815 -0.177263 -3.84931 -45.1867 -2.35593 8.60756 7.84496 -1.07173 2.52344 1.14309 -1.04384 2.54144 1.13335 4.24141 2.02302 12.9259 -2.33895 7.16068 19.3505 -8.51405 0.590845 3.58129 -68.1888 -34.8899 -49.2695 -0.000183641 -4.00579e-06 -105.22 -17.864 5.78893 -4.87737 -4.87736 2.43141 15.091 65.3797 8.15531 55.9244 2.9793e-05 6.61045e-06 102.51 8.16363 -8.11483 18.4204 20.4497 -25.3092 19.9515 7.5543 48.5919 -14.2974 -16.7446 -12.4048 -14.0735 1.69972e-06 -4.37658 2.52081e-06 -26.1973 -17.4826 -23.0278 -11.3144 55.2089 2.54449 22.2787 -16.9043 2.26143 -9.25465e-06 -0.853533 5.20048e-05 
-3.17598 93.7305 -3.40561 -0.398404 -2.97062 -43.6843 -2.4946 8.26548 7.61466 -0.892306 2.62344 1.12996 -0.863797 2.63813 1.11809 3.99477 2.51036 12.8403 -1.3921 6.66857 18.5276 -8.37266 0.756259 2.79382 -69.2583 -36.149 -53.5165 -0.000290911 -7.72416e-06 -104.661 -16.1831 5.68242 -5.32827 -4.85342 2.65747 16.0316 65.6985 5.38171 58.5345 6.04132e-05 6.12972e-06 101.587 8.36669 -8.96476 18.3354 21.1711 -24.7632 20.1843 8.15716 43.2993 -14.5728 -18.7226 -5.12034 -14.2668 -3.40711e-08 -7.53198 -2.55804e-06 -23.7006 -16.7818 -22.6214 -8.60248 53.253 0.190757 21.1243 -15.4449 2.11661 3.23642e-06 -0.220435 -2.61951e-05 
-4.10289 95.1951 -5.4756 -0.489593 -2.20268 -41.3974 -2.68639 7.97542 7.25438 -0.646321 2.81206 1.08444 -0.617047 2.82224 1.0698 3.58116 2.87116 12.8017 -0.268119 5.81024 17.4033 -8.27297 1.0112 1.68395 -70.6318 -36.8718 -58.0846 -0.000244141 6.81216e-13 -103.671 -14.1321 5.85595 -5.77805 -5.14204 2.56101 16.828 66.0491 2.83339 61.0267 1.49838e-05 2.88376e-06 100.894 8.59155 -9.42279 18.2078 21.7617 -24.9735 20.268 8.66228 38.2854 -14.6135 -20.3664 2.86505 -14.1352 0.0329388 -10.1029 0.00576454 -20.8037 -15.8563 -21.7509 -5.52796 51.0481 -3.34627 19.8527 -15.4371 2.29041 1.2519e-06 0.31853 -3.16705e-05 
-5.00322 95.9956 -7.68311 -0.30951 -1.65755 -38.6698 -2.92209 7.74778 6.95673 -0.461103 3.1112 1.03674 -0.429657 3.11777 1.01965 3.11823 2.98521 12.7915 0.958187 4.68504 16.0224 -8.25333 1.33051 0.427392 -71.7657 -36.9573 -61.7639 -0.000230343 -1.32741e-05 -102.561 -12.5259 6.44076 -6.13344 -5.68368 2.17076 17.5093 66.2078 0.703491 62.8667 -7.5525e-05 -8.35503e-06 100.516 8.58293 -9.54417 18.083 21.8189 -25.9664 20.0611 8.92932 34.6464 -14.4299 -20.4358 8.23431 -13.4851 0.0172503 -10.0328 0.00300754 -18.1916 -14.9317 -20.592 -2.37169 48.7746 -7.39055 18.3677 -17.001 1.99354 -7.7092e-07 -0.275796 1.50882e-05 
-5.81279 96.0112 -9.83202 0.114659 -1.40947 -35.9773 -3.14589 7.63821 6.86614 -0.428777 3.4338 1.01845 -0.393899 3.43917 1.00027 2.80628 2.84772 12.7573 2.12694 3.65875 14.5723 -8.31943 1.65633 -0.70384 -72.3714 -36.4881 -63.7337 -0.000321083 -6.25683e-06 -101.831 -11.7188 7.24605 -6.44479 -6.22387 1.73619 18.1681 66.0499 -0.927522 63.6169 -1.47309e-05 -5.65151e-06 100.672 8.23073 -9.45662 17.9949 21.2554 -27.383 19.5069 8.92966 32.9679 -14.2132 -19.2975 9.47671 -12.152 -3.32663e-07 -7.73179 3.31181e-05 -16.4203 -14.1224 -19.4953 0.570323 46.8055 -10.7036 16.3964 -20.1588 0.512022 -0.0471662 -0.754384 -0.000602214 
-6.48869 95.2701 -11.7676 0.544353 -1.48823 -33.7289 -3.19861 7.8364 6.96629 -0.559613 3.61208 1.0399 -0.522258 3.61897 1.023 2.80218 2.528 12.6659 2.99823 3.16316 13.3531 -8.46429 1.88501 -1.32453 -72.4856 -35.4391 -63.5375 -0.00013961 -2.19567e-05 -101.863 -11.5214 7.81021 -6.71172 -6.53609 1.47156 18.6627 65.7528 -1.60496 62.9417 2.93147e-05 1.20578e-05 101.394 7.74415 -9.14389 18.0415 20.4326 -28.709 18.8436 8.78607 33.1012 -14.1355 -18.2497 7.2623 -10.1891 3.55255e-06 -5.19233 2.169e-05 -15.7036 -13.915 -18.9014 2.99797 46.4083 -12.5671 13.8916 -23.8318 -1.986 -0.218325 -1.58698 -0.00553482 
-6.97844 93.9572 -13.4167 0.751019 -1.89649 -32.1038 -2.96037 8.54654 7.10038 -0.812937 3.54353 1.08336 -0.77643 3.55399 1.07018 3.12016 2.09157 12.5346 3.40419 3.31157 12.645 -8.67452 1.91024 -1.11027 -72.2266 -33.7586 -61.0945 -0.000169706 -1.6742e-05 -102.676 -11.5254 7.68192 -6.90627 -6.59421 1.36884 18.606 65.692 -0.667988 61.0564 -3.05176e-05 4.53853e-12 101.827 7.49553 -8.43237 18.6982 19.8082 -29.7942 18.3996 8.74525 34.6453 -14.3026 -17.7733 3.42086 -8.42012 -2.77343e-06 -3.64116 -9.92652e-07 -16.0956 -15.3291 -19.0898 5.01936 49.9978 -14.1894 12.4459 -28.0257 -3.08351 7.90962e-07 0.446082 8.23013e-06 
-7.24687 92.5384 -14.727 0.623572 -2.50702 -30.9885 -2.36169 9.71821 7.09516 -1.13369 3.31844 1.12119 -1.10118 3.33338 1.11243 3.61694 1.599 12.4093 3.39557 3.75118 12.5139 -8.91278 1.71082 -0.0845141 -71.6966 -31.5915 -57.0467 -0.00018399 -7.29318e-06 -103.827 -11.5366 6.86405 -7.02714 -6.4998 1.30943 17.7842 66.072 1.90489 58.3726 -1.43027e-05 -9.30693e-06 101.731 7.56703 -7.3308 19.8649 19.6228 -30.7086 18.2483 8.92242 36.8332 -14.7112 -17.5076 0.125874 -7.6228 -2.46174e-06 -3.12812 -3.05476e-06 -16.8251 -16.7808 -19.7506 6.65053 54.2063 -15.7549 11.5927 -30.529 -3.11747 -4.10383e-06 0.835302 -5.47995e-06 
-7.34172 91.4499 -15.6699 0.362274 -3.16236 -30.1594 -1.62442 10.9496 6.93561 -1.45306 3.1621 1.1452 -1.42484 3.18112 1.13886 4.06835 1.16903 12.3204 3.2149 3.99223 12.7179 -9.11843 1.38558 1.31628 -70.9957 -29.3382 -52.765 -0.000259892 -3.84409e-06 -104.592 -11.7472 5.98937 -7.03992 -6.3109 1.29222 16.563 66.7026 5.02339 55.6254 3.02239e-05 2.97899e-06 101.258 7.75477 -6.14909 20.9917 20.1859 -31.977 18.3731 9.27301 39.0093 -15.2263 -17.6243 -0.632021 -7.82819 4.51489e-06 -2.52587 -7.41835e-06 -17.4935 -17.5218 -20.4494 7.84297 57.2438 -16.9683 11.6706 -31.9829 -2.5712 -2.10203e-06 0.744437 2.20534e-05 
-7.37902 90.9726 -16.2205 0.299348 -3.73097 -29.5533 -1.15699 11.7345 6.80618 -1.68914 3.22471 1.17363 -1.66266 3.24621 1.16684 4.29101 0.983164 12.2664 3.1115 3.90248 12.9031 -9.23929 1.0829 2.52439 -70.1813 -27.5327 -49.6207 -0.000243657 3.81221e-06 -104.468 -12.4479 5.87349 -6.86414 -6.00706 1.44469 15.7218 67.2062 7.14477 53.603 7.52247e-05 1.13747e-05 100.741 7.86121 -5.34902 21.4767 20.4404 -32.9686 18.4789 9.53204 40.3907 -15.3745 -17.6793 1.40178 -8.69215 -7.21367e-07 -4.85325 5.16739e-06 -18.0304 -17.6223 -20.9235 8.52993 58.6126 -17.6911 11.814 -32.5605 -2.31813 5.97049e-06 0.666817 -1.10007e-05 
